<svg width="53" height="53" viewBox="0 0 53 53" fill="none" xmlns="http://www.w3.org/2000/svg">
<g filter="url(#filter0_d)">
<circle cx="26.5" cy="22.5" r="22.5" fill="#E44369"/>
<path d="M32.6562 15H21.3438C20.0516 15 19 16.0516 19 17.3438V28.6562C19 29.9487 20.0516 31 21.3438 31H32.6562C33.9487 31 35 29.9487 35 28.6562V17.3438C35 16.0516 33.9487 15 32.6562 15ZM34.0625 28.6562C34.0625 29.4316 33.4316 30.0625 32.6562 30.0625H21.3438C20.5684 30.0625 19.9375 29.4316 19.9375 28.6562V17.3438C19.9375 16.5684 20.5684 15.9375 21.3438 15.9375H32.6562C33.4316 15.9375 34.0625 16.5684 34.0625 17.3438V28.6562Z" fill="white"/>
<path d="M32.1562 16.9062C31.6394 16.9062 31.2188 17.3269 31.2188 17.8438C31.2188 18.3606 31.6394 18.7812 32.1562 18.7812C32.6731 18.7812 33.0938 18.3606 33.0938 17.8438C33.0938 17.3269 32.6731 16.9062 32.1562 16.9062Z" fill="white"/>
<path d="M27 18.7812C24.6737 18.7812 22.7812 20.6737 22.7812 23C22.7812 25.3263 24.6737 27.2188 27 27.2188C29.3263 27.2188 31.2188 25.3263 31.2188 23C31.2188 20.6737 29.3263 18.7812 27 18.7812ZM27 26.2812C25.1906 26.2812 23.7188 24.8094 23.7188 23C23.7188 21.1906 25.1906 19.7188 27 19.7188C28.8094 19.7188 30.2812 21.1906 30.2812 23C30.2812 24.8094 28.8094 26.2812 27 26.2812Z" fill="white"/>
</g>
<defs>
<filter id="filter0_d" x="0" y="0" width="53" height="53" filterUnits="userSpaceOnUse" color-interpolation-filters="sRGB">
<feFlood flood-opacity="0" result="BackgroundImageFix"/>
<feColorMatrix in="SourceAlpha" type="matrix" values="0 0 0 0 0 0 0 0 0 0 0 0 0 0 0 0 0 0 127 0" result="hardAlpha"/>
<feOffset dy="4"/>
<feGaussianBlur stdDeviation="2"/>
<feComposite in2="hardAlpha" operator="out"/>
<feColorMatrix type="matrix" values="0 0 0 0 0.675 0 0 0 0 0.675 0 0 0 0 0.675 0 0 0 0.24 0"/>
<feBlend mode="normal" in2="BackgroundImageFix" result="effect1_dropShadow"/>
<feBlend mode="normal" in="SourceGraphic" in2="effect1_dropShadow" result="shape"/>
</filter>
</defs>
</svg>
