<svg width="145" height="134" viewBox="0 0 145 134" fill="none" xmlns="http://www.w3.org/2000/svg">
<path d="M41.3522 63.3492C41.3522 71.9872 48.3547 78.9897 56.9928 78.9897L80.4535 78.9897C82.853 78.9897 84.7981 77.0445 84.7981 74.6451L84.7981 45.1019C84.7981 40.303 80.9078 36.4127 76.1089 36.4127L45.6968 36.4127C43.2974 36.4127 41.3522 38.3579 41.3522 40.7573L41.3522 63.3492Z" fill="#FFF1DA"/>
<path d="M83.5676 75.4631C82.3873 75.7274 81.2378 76.2171 80.1902 76.9013C77.4612 78.6403 75.8734 81.1225 76.6441 82.4451C77.4147 83.7677 80.2518 83.4295 82.9809 81.6905C84.0425 81.0305 84.9856 80.187 85.7521 79.2121C86.1079 78.741 86.1717 78.1541 85.9152 77.7154L84.914 75.9972C84.6593 75.557 84.1309 75.3477 83.5676 75.4631Z" fill="#D5D6DB"/>
<path d="M76.7145 52.0082C75.8587 52.2001 75.025 52.5553 74.2653 53.0515C72.2869 54.3121 71.135 56.112 71.6933 57.0702C72.2517 58.0284 74.3097 57.7829 76.2879 56.5225C77.0576 56.0436 77.7414 55.4317 78.2974 54.7247C78.555 54.3833 78.6011 53.9581 78.4152 53.64L77.6903 52.3959C77.5058 52.0768 77.123 51.9247 76.7145 52.0082Z" fill="#D5D6DB"/>
<path d="M65.58 52.9906C65.3894 52.9693 65.1863 53.0201 65.0101 53.1326L60.363 56.0941C59.9743 56.341 59.8187 56.8166 60.0159 57.1565C60.061 57.2344 60.1227 57.3009 60.1976 57.3522L71.6514 65.2462L87.1472 55.3712L65.58 52.9906Z" fill="#029BC5"/>
<path d="M114.567 51.8743L72.3966 78.4215L47.4476 88.3493L34.7239 90.8785L33.3242 88.5001L103.615 45.1006C105.71 43.8016 108.044 43.0044 110.38 42.7897C111.403 42.7011 112.414 42.7352 113.388 42.8905C114.252 43.0215 115.071 43.2741 115.821 43.6408C116.659 44.0564 118.253 44.1043 118.769 44.9322C118.771 44.9309 119.989 48.7319 114.567 51.8743V51.8743Z" fill="#E1E6E9"/>
<path d="M72.9556 74.9089L54.7124 103.992C54.4846 104.4 54.6198 104.858 55.0142 105.013C55.2563 105.109 55.5525 105.071 55.8014 104.913L60.4449 101.967C61.338 101.4 62.1288 100.68 62.7685 99.8519L98.1476 58.2577L72.9556 74.9089Z" fill="#029BC5"/>
<path d="M26.9207 73.9379C26.6164 73.8339 26.2542 73.8879 25.9485 74.0826L22.1101 76.5272C21.5871 76.86 21.3787 77.4999 21.6444 77.9567C21.6951 78.0435 21.7608 78.1199 21.8397 78.1829L32.5941 86.7959L43.9013 79.7332L26.9207 73.9379Z" fill="#029BC5"/>
<path d="M36.1987 88.3485L30.4104 96.4551C30.3255 96.5716 30.3455 96.7179 30.4549 96.7816C30.5339 96.8275 30.6416 96.8192 30.7292 96.7605L34.3163 94.4875C34.3442 94.4698 34.3694 94.4477 34.3902 94.4224L42.8479 84.139L36.1987 88.3485Z" fill="#029BC5"/>
<path d="M112.696 43.2401C111.693 43.0789 110.652 43.0445 109.598 43.1372C108.572 44.5718 107.916 46.1834 107.696 47.8113C107.68 48.1382 107.943 48.3736 108.285 48.337C108.391 48.3254 108.497 48.2881 108.592 48.2284L115.202 44.0191C114.429 43.638 113.585 43.3757 112.696 43.2401Z" fill="#029BC5"/>
<path d="M98.2897 50.9805L102.606 48.2547L106.626 55.0922L102.31 57.818L98.2897 50.9805Z" fill="#D5D6DB"/>
<path d="M95.5739 53.6847C95.0538 54.0142 94.8459 54.6474 95.1099 55.099L95.5377 55.8306C95.8191 56.2707 96.4615 56.3481 96.9726 56.0034C97.4591 55.6751 97.655 55.0785 97.4206 54.6379L96.9928 53.9063C96.729 53.4551 96.0939 53.3558 95.5739 53.6847V53.6847Z" fill="#3A556A"/>
<path d="M91.6947 56.0937C91.1746 56.4232 90.9667 57.0564 91.2308 57.508L91.6586 58.2396C91.94 58.6797 92.5823 58.7571 93.0935 58.4124C93.5799 58.0841 93.7758 57.4875 93.5414 57.0469L93.1136 56.3153C92.8496 55.8642 92.2146 55.7649 91.6947 56.0937V56.0937Z" fill="#3A556A"/>
<path d="M87.8142 58.5035C87.2947 58.8334 87.0876 59.4659 87.3514 59.9171L87.7792 60.6487C88.0606 61.0888 88.7029 61.1661 89.2141 60.8215C89.7005 60.4932 89.8964 59.8966 89.662 59.456L89.2342 58.7244C88.9702 58.2728 88.3345 58.174 87.8142 58.5035V58.5035Z" fill="#3A556A"/>
<path d="M83.9351 60.9125C83.4156 61.2424 83.2085 61.8749 83.4723 62.3261L83.9001 63.0577C84.1815 63.4978 84.8239 63.5752 85.335 63.2305C85.8215 62.9022 86.0173 62.3056 85.7829 61.865L85.3551 61.1334C85.0909 60.6819 84.4552 60.5831 83.9351 60.9125V60.9125Z" fill="#3A556A"/>
<path d="M80.0564 63.3217C79.5365 63.6517 79.3293 64.2845 79.5933 64.7359L80.0213 65.4678C80.2851 65.919 80.9205 66.0178 81.4405 65.6885C81.9604 65.3592 82.168 64.7265 81.9041 64.2753L81.4761 63.5434C81.2129 63.0917 80.5777 62.9923 80.0575 63.321C80.057 63.3213 80.0568 63.3214 80.0564 63.3217Z" fill="#3A556A"/>
<path d="M76.1771 65.7308C75.6573 66.0608 75.4501 66.6936 75.714 67.145L76.1421 67.8769C76.4059 68.3281 77.0413 68.4269 77.5613 68.0976C78.0812 67.7683 78.2888 67.1355 78.0249 66.6843L77.5969 65.9524C77.3337 65.5008 76.6985 65.4013 76.1782 65.7301C76.1778 65.7303 76.1774 65.7306 76.1771 65.7308Z" fill="#3A556A"/>
<path d="M72.2977 68.1399C71.7779 68.4699 71.5707 69.1027 71.8346 69.554L72.2627 70.2859C72.5272 70.7367 73.1629 70.8345 73.6823 70.5048C74.2008 70.1756 74.4079 69.5442 74.1453 69.0936L73.7172 68.3617C73.4535 67.9102 72.8181 67.8108 72.2977 68.1399Z" fill="#3A556A"/>
<path d="M68.4184 70.5489C67.8986 70.879 67.6913 71.5117 67.9553 71.9631L68.3833 72.6951C68.6478 73.1458 69.2836 73.2437 69.8029 72.9139C70.3214 72.5847 70.5286 71.9533 70.2659 71.5026L69.8379 70.7707C69.5742 70.3192 68.9388 70.2199 68.4184 70.5489Z" fill="#3A556A"/>
<path d="M64.5393 72.9579C64.0195 73.288 63.8122 73.9207 64.0762 74.3721L64.5042 75.104C64.7688 75.5548 65.4045 75.6526 65.9238 75.3229C66.4423 74.9937 66.6495 74.3623 66.3868 73.9116L65.9588 73.1797C65.6948 72.7284 65.0595 72.629 64.5393 72.9579Z" fill="#3A556A"/>
<path d="M60.6589 75.3677C60.139 75.697 59.9314 76.3297 60.1952 76.7809L60.1958 76.7819L60.6238 77.5138C60.8883 77.9646 61.524 78.0624 62.0434 77.7326C62.5619 77.4035 62.769 76.772 62.5064 76.3214L62.0784 75.5895C61.8146 75.1379 61.1793 75.0386 60.6589 75.3677Z" fill="#3A556A"/>
<path d="M56.7807 77.7761C56.2608 78.1054 56.0532 78.7381 56.3171 79.1893L56.3176 79.1902L56.7456 79.9221C57.0102 80.3729 57.6459 80.4707 58.1653 80.141C58.6838 79.8118 58.8909 79.1804 58.6283 78.7298L58.2002 77.9979C57.9363 77.5465 57.3009 77.4471 56.7807 77.7761Z" fill="#3A556A"/>
</svg>
