<svg width="92" height="78" viewBox="0 0 92 78" fill="none" xmlns="http://www.w3.org/2000/svg">
<path d="M32.2598 60C32.2598 69.9411 40.3186 78 50.2598 78L87 78C89.7615 78 92 75.7614 92 73L92 30.0909C92 24.5681 87.5229 20.0909 82 20.0909L37.2598 20.0909C34.4983 20.0909 32.2598 22.3295 32.2598 25.0909L32.2598 60Z" fill="#FFF1DA"/>
<path d="M59.7402 32.9115V26.1794C59.7402 24.8597 58.6587 23.7899 57.3244 23.7899H54.7213C53.6805 23.7899 52.757 23.1302 52.4298 22.1529C52.0654 21.0642 51.6225 20.0108 51.1081 18.9992C50.6395 18.0779 50.8189 16.9641 51.5561 16.2348L53.3978 14.4131C54.3413 13.4799 54.3413 11.9669 53.3978 11.0337L48.5852 6.27339C47.6417 5.34018 46.1121 5.34018 45.1687 6.27339L43.3269 8.0951C42.5896 8.8244 41.4636 9.00167 40.5321 8.53822C39.5094 8.02935 38.4445 7.59134 37.3438 7.23085C36.3557 6.90722 35.6888 5.99374 35.6888 4.96423V2.38956C35.6888 1.06982 34.6073 0 33.273 0H26.467C25.1327 0 24.0511 1.06982 24.0511 2.38956V4.96435C24.0511 5.99386 23.3843 6.90733 22.3962 7.23097C21.2955 7.59146 20.2305 8.02947 19.2079 8.53834C18.2764 9.00179 17.1504 8.8244 16.413 8.09522L14.5713 6.2735C13.6278 5.3403 12.0983 5.3403 11.1548 6.2735L6.34242 11.0338C5.39896 11.967 5.39896 13.48 6.34242 14.4132L8.18415 16.2349C8.92135 16.9642 9.10069 18.078 8.63214 18.9993C8.11768 20.0109 7.67486 21.0643 7.31041 22.153C7.07914 22.8437 6.55013 23.3756 5.89239 23.6283C5.61941 23.7331 5.44439 23.9088 5.13908 23.9088H2.53599C1.20175 23.9088 0.120178 24.9786 0.120178 26.2983V32.7926C0.120178 34.1123 1.20175 35.1822 2.53599 35.1822H5.13908C6.17991 35.1822 7.10342 35.9607 7.43061 36.938C7.79506 38.0267 8.23788 39.08 8.75235 40.0917C9.22089 41.013 9.04155 42.1268 8.30435 42.8561L6.58282 44.6778C5.63936 45.611 5.63936 47.124 6.58282 48.0572L11.1551 52.5797C12.0985 53.5129 13.6281 53.5129 14.5716 52.5797L16.4133 50.758C17.1505 50.0287 18.2766 49.8514 19.2081 50.3149C20.2308 50.8238 21.5362 51.3807 22.6368 51.7412C23.6249 52.0648 24.2918 52.9783 24.2918 54.0078V56.5826C24.2918 57.9023 25.3734 58.9721 26.7076 58.9721H33.1531C34.4873 58.9721 35.5689 57.9023 35.5689 56.5826V54.0078C35.5689 53.7058 35.7464 53.5327 35.8524 53.2627C36.1079 52.6121 36.6458 52.0888 37.3439 51.8601C38.4446 51.4996 39.5096 51.0616 40.5322 50.5527C41.4637 50.0892 42.5897 50.2666 43.3271 50.9958L45.1688 52.8175C46.1122 53.7507 47.6418 53.7507 48.5853 52.8175L53.3979 48.0572C54.3414 47.124 54.3414 45.611 53.3979 44.6778L51.5562 42.8561C50.819 42.1268 50.6396 41.013 51.1082 40.0917C51.6227 39.0801 52.0655 38.0267 52.4299 36.938C52.7571 35.9607 53.6806 35.301 54.7215 35.301H57.3245C58.6587 35.301 59.7402 34.2312 59.7402 32.9115V32.9115Z" fill="#B6C4CF"/>
<path d="M35.8526 53.2626C35.7468 53.5325 35.6891 53.825 35.6891 54.127V56.7011C35.6891 58.0208 34.6073 59.0909 33.273 59.0909H26.4672C25.133 59.0909 24.0512 58.0208 24.0512 56.7011V54.127C24.0512 53.0974 23.384 52.183 22.396 51.8597C21.2961 51.4994 20.2312 51.0619 19.2082 50.553C18.2767 50.0893 17.1504 50.2665 16.4135 50.9953L14.5721 52.8168C13.6285 53.7501 12.0983 53.7501 11.1547 52.8168L6.34184 48.0574C5.39946 47.1241 5.39946 45.6105 6.34184 44.6772L8.18453 42.8557C8.92137 42.1269 9.10047 41.0128 8.63169 40.0914C8.11722 39.0796 7.67488 38.0262 7.31067 36.9383C6.98372 35.961 6.05937 35.3011 5.01842 35.3011H2.41605C1.08182 35.3011 0 34.2311 0 32.9113V26.1795C0 24.8597 1.08182 23.7897 2.41605 23.7897H5.01842C5.32373 23.7897 5.61943 23.7326 5.89229 23.628C5.88988 23.7766 5.88868 23.9264 5.88868 24.0762C5.88868 40.1972 19.1013 53.2662 35.3994 53.2662C35.5509 53.2662 35.7023 53.265 35.8526 53.2626V53.2626Z" fill="#9FACBA"/>
<path d="M29.8701 49.1631C40.8237 49.1631 49.7034 40.38 49.7034 29.5454C49.7034 18.7109 40.8237 9.92773 29.8701 9.92773C18.9165 9.92773 10.0368 18.7109 10.0368 29.5454C10.0368 40.38 18.9165 49.1631 29.8701 49.1631Z" fill="#9FACBA"/>
<path d="M29.8701 45.0018C38.5002 45.0018 45.4963 38.0817 45.4963 29.5454C45.4963 21.0091 38.5002 14.0891 29.8701 14.0891C21.24 14.0891 14.2439 21.0091 14.2439 29.5454C14.2439 38.0817 21.24 45.0018 29.8701 45.0018Z" fill="#F8F7F7"/>
</svg>
