<svg width="24" height="24" viewBox="0 0 24 24" fill="none" xmlns="http://www.w3.org/2000/svg">
<path d="M21.16 2.13008L10.33 13.0001C10.2058 12.9281 10.0753 12.8679 9.93998 12.8201L2.78998 10.4001C2.57375 10.3459 2.38183 10.221 2.2447 10.0453C2.10756 9.86951 2.03308 9.65299 2.03308 9.43007C2.03308 9.20716 2.10756 8.99064 2.2447 8.81489C2.38183 8.63915 2.57375 8.51427 2.78998 8.46007L20.53 2.15008C20.6459 2.1107 20.7675 2.09044 20.89 2.09007C20.9816 2.0886 21.0728 2.10211 21.16 2.13008V2.13008Z" fill="#84829A"/>
<path d="M21.85 3.46997L15.54 21.23C15.4705 21.437 15.335 21.6155 15.1545 21.7383C14.9739 21.861 14.7581 21.9214 14.54 21.91C14.3195 21.9201 14.1017 21.8569 13.9208 21.7303C13.74 21.6036 13.6061 21.4207 13.54 21.21L11.16 14.06C11.1122 13.9247 11.052 13.7941 10.98 13.67L21.87 2.83997C21.9315 3.04663 21.9245 3.26761 21.85 3.46997V3.46997Z" fill="#84829A"/>
</svg>
